<svg aria-hidden="true" style="position: absolute; width: 0; height: 0; overflow: hidden;" version="1.1" xmlns="http://www.w3.org/2000/svg" xmlns:xlink="http://www.w3.org/1999/xlink">
<defs>

<symbol id="npm" viewBox="0 0 32 32">
<path d="M2.351 0c-1.303 0-2.351 1.048-2.351 2.351v27.299c0 1.303 1.048 2.351 2.351 2.351h27.299c1.303 0 2.351-1.048 2.351-2.351v-27.299c0-1.303-1.048-2.351-2.351-2.351zM6.84 7.097l18.449 0.025-0.012 18.448h-4.619l0.013-13.843h-4.608l-0.011 13.832h-9.236z"></path>
</symbol>

<symbol id="figma" viewBox="0 0 32 32">
<path d="M21.136 11.975h-6.117v-11.975h6.117c3.301 0 5.987 2.685 5.987 5.987s-2.685 5.988-5.987 5.988zM16.98 10.013h4.156c2.22 0 4.025-1.807 4.025-4.025s-1.807-4.025-4.025-4.025h-4.156v8.051zM16.98 11.975h-6.116c-3.301 0-5.987-2.685-5.987-5.987s2.685-5.988 5.987-5.988h6.117v11.975zM10.864 1.961c-2.22 0-4.025 1.807-4.025 4.025s1.805 4.027 4.025 4.027h4.156v-8.052h-4.156zM16.98 21.987h-6.116c-3.301 0-5.987-2.685-5.987-5.987s2.685-5.987 5.987-5.987h6.117v11.973zM10.864 11.975c-2.22 0-4.025 1.807-4.025 4.025s1.807 4.025 4.025 4.025h4.156v-8.051h-4.156zM10.896 32c-3.319 0-6.020-2.685-6.020-5.987s2.685-5.987 5.987-5.987h6.117v5.921c0 3.337-2.729 6.052-6.084 6.052zM10.864 21.987c-2.222 0.003-4.022 1.803-4.025 4.025v0c0 2.22 1.82 4.025 4.059 4.025 2.273 0 4.124-1.835 4.124-4.091v-3.96h-4.157zM21.136 21.987h-0.131c-3.301 0-5.987-2.685-5.987-5.987s2.685-5.987 5.987-5.987h0.131c3.301 0 5.987 2.685 5.987 5.987s-2.685 5.987-5.987 5.987zM21.007 11.975c-2.22 0-4.025 1.807-4.025 4.025s1.807 4.025 4.025 4.025h0.131c2.22 0 4.025-1.807 4.025-4.025s-1.807-4.025-4.025-4.025h-0.131z"></path>
</symbol>

<symbol id="ts" viewBox="0 0 32 32">
<path d="M1.5 0c-0.831 0-1.5 0.669-1.5 1.5v29c0 0.831 0.669 1.5 1.5 1.5h29c0.831 0 1.5-0.669 1.5-1.5v-29c0-0.831-0.669-1.5-1.5-1.5zM24.651 13c0.816 0 1.539 0.049 2.169 0.148 0.655 0.1 1.241 0.258 1.799 0.473l-0.058-0.020v3.277c-0.247-0.173-0.528-0.334-0.824-0.468l-0.033-0.013c-0.263-0.123-0.58-0.241-0.908-0.335l-0.048-0.012c-0.569-0.165-1.223-0.262-1.899-0.267h-0.003c-0.4 0-0.764 0.037-1.092 0.115-0.314 0.068-0.591 0.18-0.844 0.33l0.013-0.007c-0.227 0.139-0.4 0.305-0.524 0.499-0.117 0.18-0.187 0.401-0.187 0.638 0 0.005 0 0.011 0 0.016v-0.001c0 0.261 0.071 0.497 0.208 0.705 0.139 0.208 0.336 0.405 0.591 0.592s0.564 0.368 0.928 0.547c0.364 0.18 0.776 0.365 1.235 0.555 0.627 0.263 1.189 0.543 1.688 0.837 0.499 0.296 0.927 0.631 1.284 1.004 0.357 0.372 0.629 0.797 0.819 1.276s0.285 1.035 0.285 1.671c0 0.876-0.167 1.613-0.497 2.208-0.331 0.593-0.786 1.080-1.334 1.437l-0.015 0.009c-0.568 0.366-1.233 0.642-1.945 0.788l-0.038 0.006c-0.755 0.16-1.551 0.24-2.387 0.24-0.017 0-0.038 0-0.058 0-0.847 0-1.675-0.080-2.478-0.232l0.082 0.013c-0.756-0.133-1.433-0.362-2.058-0.677l0.042 0.019v-3.507c1.155 0.988 2.664 1.592 4.314 1.6h0.002c0.444 0 0.832-0.040 1.163-0.12 0.332-0.080 0.608-0.192 0.831-0.333 0.221-0.144 0.387-0.312 0.497-0.507 0.103-0.187 0.164-0.41 0.164-0.648 0-0.302-0.098-0.582-0.265-0.808l0.003 0.004c-0.2-0.262-0.436-0.483-0.705-0.66l-0.011-0.007c-0.307-0.207-0.66-0.404-1.029-0.573l-0.047-0.019c-0.21-0.109-0.652-0.304-1.099-0.491l-0.244-0.091c-1.224-0.511-2.136-1.136-2.737-1.873-0.6-0.737-0.901-1.629-0.901-2.673 0-0.819 0.164-1.521 0.492-2.109s0.773-1.072 1.339-1.452c0.561-0.375 1.216-0.665 1.919-0.831l0.041-0.008c0.693-0.17 1.488-0.268 2.306-0.268 0.019 0 0.038 0 0.057 0h-0.003zM4.5 13.251h12.751v2.888h-4.576v12.861h-3.623v-12.861h-4.552z"></path>
</symbol>

<symbol id="git" viewBox="0 0 32 32">
<path d="M31.397 14.575l-13.972-13.971c-0.804-0.805-2.109-0.805-2.915 0l-3.246 3.246 2.443 2.443c0.392-0.187 0.83-0.293 1.293-0.293 1.657 0 3 1.343 3 3 0 0.463-0.105 0.902-0.293 1.293l3.999 3.999c0.392-0.187 0.83-0.293 1.293-0.293 1.657 0 3 1.343 3 3s-1.343 3-3 3-3-1.343-3-3c0-0.463 0.105-0.902 0.293-1.293l-3.999-3.999c-0.095 0.046-0.193 0.086-0.293 0.121v8.343c1.165 0.412 2 1.522 2 2.829 0 1.657-1.343 3-3 3s-3-1.343-3-3c0-1.306 0.835-2.417 2-2.829v-8.343c-1.165-0.412-2-1.522-2-2.829 0-0.463 0.105-0.902 0.293-1.293l-2.443-2.443-9.247 9.246c-0.805 0.806-0.805 2.11 0 2.915l13.973 13.971c0.804 0.805 2.109 0.805 2.915 0l13.906-13.906c0.805-0.805 0.805-2.111-0-2.915z"></path>
</symbol>

<symbol id="react" viewBox="0 0 32 32">
<path d="M18.973 16.005c0 1.646-1.334 2.981-2.98 2.981h-0c-1.647 0-2.981-1.335-2.981-2.981v0c0-1.646 1.334-2.981 2.98-2.981h0c1.647 0 2.981 1.335 2.981 2.981v0zM22.504 1.752c-1.795 0-4.143 1.28-6.517 3.496-2.373-2.204-4.723-3.469-6.516-3.469-0.547 0-1.044 0.124-1.475 0.371-1.833 1.057-2.244 4.352-1.297 8.487-4.059 1.253-6.699 3.257-6.699 5.369 0 2.12 2.653 4.129 6.724 5.373-0.939 4.151-0.52 7.451 1.317 8.507 0.427 0.249 0.92 0.367 1.469 0.367 1.793 0 4.143-1.28 6.517-3.499 2.373 2.205 4.723 3.471 6.516 3.471 0.547 0 1.044-0.12 1.475-0.367 1.832-1.056 2.244-4.351 1.297-8.487 4.044-1.243 6.684-3.251 6.684-5.365 0-2.12-2.653-4.129-6.724-5.376 0.939-4.147 0.52-7.449-1.317-8.507-0.424-0.245-0.917-0.369-1.456-0.371zM22.497 3.205v0.008c0.3 0 0.541 0.059 0.744 0.169 0.888 0.509 1.273 2.447 0.973 4.939-0.072 0.613-0.189 1.26-0.333 1.92-1.28-0.315-2.675-0.556-4.143-0.712-0.88-1.207-1.793-2.303-2.713-3.263 2.123-1.973 4.116-3.056 5.473-3.060zM9.471 3.232c1.349 0 3.352 1.077 5.48 3.040-0.915 0.96-1.827 2.049-2.693 3.256-1.476 0.156-2.872 0.397-4.151 0.717-0.149-0.653-0.26-1.285-0.339-1.893-0.307-2.491 0.072-4.427 0.952-4.943 0.253-0.12 0.533-0.169 0.751-0.176zM15.98 7.299c0.607 0.624 1.213 1.323 1.813 2.085-0.587-0.027-1.187-0.045-1.793-0.045-0.613 0-1.22 0.013-1.813 0.045 0.587-0.763 1.193-1.461 1.793-2.087zM16 10.8c0.987 0 1.969 0.045 2.936 0.124 0.541 0.776 1.069 1.604 1.577 2.48 0.496 0.853 0.947 1.72 1.357 2.595-0.411 0.873-0.861 1.747-1.351 2.6-0.507 0.88-1.031 1.717-1.573 2.493-0.971 0.084-1.955 0.131-2.947 0.131-0.987 0-1.969-0.047-2.936-0.124-0.541-0.776-1.069-1.605-1.577-2.48-0.496-0.853-0.947-1.72-1.357-2.595 0.404-0.876 0.861-1.751 1.351-2.605 0.507-0.88 1.031-1.715 1.573-2.491 0.971-0.085 1.955-0.131 2.947-0.131zM11.153 11.139c-0.32 0.503-0.64 1.017-0.939 1.547-0.3 0.52-0.58 1.043-0.847 1.565-0.353-0.875-0.653-1.747-0.901-2.596 0.853-0.2 1.753-0.377 2.687-0.515zM20.833 11.139c0.927 0.137 1.82 0.307 2.675 0.516-0.24 0.843-0.54 1.709-0.88 2.577-0.267-0.52-0.547-1.044-0.853-1.565-0.3-0.523-0.62-1.032-0.94-1.528zM24.917 12.039c0.645 0.2 1.259 0.423 1.833 0.664 2.309 0.987 3.803 2.277 3.803 3.301-0.007 1.024-1.5 2.32-3.809 3.3-0.56 0.24-1.173 0.456-1.807 0.657-0.373-1.277-0.861-2.608-1.467-3.973 0.6-1.356 1.080-2.68 1.447-3.952zM7.057 12.044c0.371 1.28 0.86 2.609 1.467 3.973-0.6 1.356-1.083 2.68-1.448 3.952-0.645-0.2-1.259-0.424-1.827-0.667-2.309-0.983-3.803-2.275-3.803-3.299s1.493-2.323 3.803-3.301c0.56-0.24 1.173-0.456 1.808-0.659zM22.628 17.751c0.353 0.876 0.653 1.749 0.901 2.597-0.853 0.209-1.755 0.387-2.688 0.52 0.32-0.5 0.64-1.016 0.94-1.544 0.3-0.52 0.58-1.051 0.848-1.573zM9.368 17.777c0.267 0.523 0.547 1.044 0.853 1.567 0.307 0.52 0.62 1.029 0.94 1.524-0.927-0.136-1.82-0.307-2.675-0.515 0.24-0.84 0.541-1.709 0.88-2.577zM23.893 21.76c0.149 0.657 0.267 1.291 0.339 1.897 0.307 2.491-0.072 4.427-0.952 4.944-0.196 0.12-0.451 0.171-0.751 0.171-1.349 0-3.352-1.076-5.48-3.040 0.915-0.96 1.827-2.048 2.693-3.253 1.476-0.157 2.872-0.4 4.151-0.72zM8.12 21.773c1.28 0.312 2.675 0.553 4.143 0.709 0.88 1.207 1.793 2.303 2.713 3.261-2.127 1.977-4.123 3.060-5.48 3.060-0.293-0.007-0.541-0.067-0.737-0.176-0.888-0.507-1.273-2.445-0.973-4.937 0.072-0.613 0.189-1.259 0.333-1.917zM14.2 22.627c0.587 0.027 1.187 0.045 1.793 0.045 0.613 0 1.22-0.013 1.813-0.045-0.587 0.763-1.193 1.46-1.793 2.087-0.607-0.627-1.213-1.324-1.813-2.087z"></path>
</symbol>

<symbol id="js" viewBox="0 0 32 32">
<path d="M0 0h32v32h-32v-32zM29.379 24.368c-0.233-1.46-1.184-2.687-4.004-3.831-0.981-0.46-2.072-0.78-2.396-1.52-0.121-0.44-0.14-0.68-0.061-0.94 0.2-0.861 1.22-1.12 2.020-0.88 0.52 0.16 1 0.56 1.301 1.2 1.379-0.901 1.379-0.901 2.34-1.5-0.36-0.56-0.539-0.801-0.781-1.040-0.84-0.94-1.959-1.42-3.779-1.379l-0.94 0.119c-0.901 0.22-1.76 0.7-2.28 1.34-1.52 1.721-1.081 4.721 0.759 5.961 1.82 1.36 4.481 1.659 4.821 2.94 0.32 1.56-1.16 2.060-2.621 1.88-1.081-0.24-1.68-0.781-2.34-1.781l-2.44 1.401c0.28 0.64 0.6 0.919 1.080 1.479 2.32 2.341 8.12 2.221 9.161-1.339 0.039-0.12 0.32-0.94 0.099-2.2l0.061 0.089zM17.401 14.708h-2.997c0 2.584-0.012 5.152-0.012 7.74 0 1.643 0.084 3.151-0.184 3.615-0.44 0.919-1.573 0.801-2.088 0.64-0.528-0.261-0.796-0.621-1.107-1.14-0.084-0.14-0.147-0.261-0.169-0.261l-2.433 1.5c0.407 0.84 1 1.563 1.765 2.023 1.14 0.68 2.672 0.9 4.276 0.54 1.044-0.301 1.944-0.921 2.415-1.881 0.68-1.24 0.536-2.76 0.529-4.461 0.016-2.739 0-5.479 0-8.239l0.005-0.075z"></path>
</symbol>

<symbol id="html" viewBox="0 0 32 32">
<path d="M1.892 0l2.567 28.801 11.524 3.199 11.554-3.204 2.572-28.796h-28.216zM25.336 26.963l-9.288 2.574v0.015l-0.024-0.007-0.024 0.007v-0.015l-9.288-2.574-2.195-24.609h23.015l-2.195 24.609zM20.336 16.569l-0.408 4.58-3.944 1.065-3.933-1.060-0.252-2.82h-3.547l0.495 5.547 7.252 2.006 7.229-2.006 0.97-10.844h-12.874l-0.322-3.617h13.517l0.316-3.532h-17.694l0.953 10.681z"></path>
</symbol>

<symbol id="file" viewBox="0 0 32 32">
<path d="M28.681 7.159c-0.694-0.947-1.662-2.053-2.724-3.116s-2.169-2.030-3.116-2.724c-1.612-1.182-2.393-1.319-2.841-1.319h-15.5c-1.378 0-2.5 1.121-2.5 2.5v27c0 1.378 1.122 2.5 2.5 2.5h23c1.378 0 2.5-1.122 2.5-2.5v-19.5c0-0.448-0.137-1.23-1.319-2.841zM24.543 5.457c0.959 0.959 1.712 1.825 2.268 2.543h-4.811v-4.811c0.718 0.556 1.584 1.309 2.543 2.268zM28 29.5c0 0.271-0.229 0.5-0.5 0.5h-23c-0.271 0-0.5-0.229-0.5-0.5v-27c0-0.271 0.229-0.5 0.5-0.5 0 0 15.499-0 15.5 0v7c0 0.552 0.448 1 1 1h7v19.5z"></path>
<path d="M23 26h-14c-0.552 0-1-0.448-1-1s0.448-1 1-1h14c0.552 0 1 0.448 1 1s-0.448 1-1 1z"></path>
<path d="M23 22h-14c-0.552 0-1-0.448-1-1s0.448-1 1-1h14c0.552 0 1 0.448 1 1s-0.448 1-1 1z"></path>
<path d="M23 18h-14c-0.552 0-1-0.448-1-1s0.448-1 1-1h14c0.552 0 1 0.448 1 1s-0.448 1-1 1z"></path>
</symbol>

<symbol id="icon-heart" viewBox="0 0 32 32">
<path d="M23.6 2c-3.363 0-6.258 2.736-7.599 5.594-1.342-2.858-4.237-5.594-7.601-5.594-4.637 0-8.4 3.764-8.4 8.401 0 9.433 9.516 11.906 16.001 21.232 6.13-9.268 15.999-12.1 15.999-21.232 0-4.637-3.763-8.401-8.4-8.401z"></path>
</symbol>

<symbol id="icon-cross" viewBox="0 0 32 32">
<path d="M31.708 25.708c-0-0-0-0-0-0l-9.708-9.708 9.708-9.708c0-0 0-0 0-0 0.105-0.105 0.18-0.227 0.229-0.357 0.133-0.356 0.057-0.771-0.229-1.057l-4.586-4.586c-0.286-0.286-0.702-0.361-1.057-0.229-0.13 0.048-0.252 0.124-0.357 0.228 0 0-0 0-0 0l-9.708 9.708-9.708-9.708c-0-0-0-0-0-0-0.105-0.104-0.227-0.18-0.357-0.228-0.356-0.133-0.771-0.057-1.057 0.229l-4.586 4.586c-0.286 0.286-0.361 0.702-0.229 1.057 0.049 0.13 0.124 0.252 0.229 0.357 0 0 0 0 0 0l9.708 9.708-9.708 9.708c-0 0-0 0-0 0-0.104 0.105-0.18 0.227-0.229 0.357-0.133 0.355-0.057 0.771 0.229 1.057l4.586 4.586c0.286 0.286 0.702 0.361 1.057 0.229 0.13-0.049 0.252-0.124 0.357-0.229 0-0 0-0 0-0l9.708-9.708 9.708 9.708c0 0 0 0 0 0 0.105 0.105 0.227 0.18 0.357 0.229 0.356 0.133 0.771 0.057 1.057-0.229l4.586-4.586c0.286-0.286 0.362-0.702 0.229-1.057-0.049-0.13-0.124-0.252-0.229-0.357z"></path>
</symbol>

<symbol id="icon-menu" viewBox="0 0 32 32">
<path d="M2 6h28v6h-28zM2 14h28v6h-28zM2 22h28v6h-28z"></path>
</symbol>

<symbol id="css" viewBox="0 0 32 32">
<path d="M0 0v26.88c0 2.828 2.292 5.12 5.12 5.12v0h21.76c2.828 0 5.12-2.292 5.12-5.12v0-21.76c0-2.828-2.292-5.12-5.12-5.12v0zM19.008 17.44c2.080 0 3.040 1.44 3.072 3.52h-2.144c0.032-0.384-0.064-0.8-0.192-1.12-0.128-0.256-0.384-0.352-0.736-0.352-0.608 0-0.928 0.352-0.928 1.12-0.032 0.768 0.384 1.184 1.024 1.44 0.96 0.384 2.144 0.992 2.56 1.728q0.576 0.864 0.576 2.208c0 2.144-1.216 3.456-3.328 3.456-2.208 0-3.2-1.376-3.232-3.584h2.24c0 1.056 0.352 1.568 1.056 1.568 0.352 0 0.608-0.096 0.736-0.32 0.256-0.416 0.32-1.568-0.064-2.016-0.416-0.544-1.216-0.8-1.76-1.088q-1.104-0.528-1.632-1.248c-0.32-0.48-0.48-1.184-0.48-2.048 0-1.92 1.248-3.296 3.232-3.264zM26.208 17.44c2.112 0 3.072 1.44 3.104 3.52h-2.144c0-0.384-0.064-0.8-0.224-1.12-0.128-0.256-0.352-0.352-0.704-0.352-0.64 0-0.96 0.352-0.96 1.12s0.384 1.184 1.056 1.44c0.928 0.384 2.144 0.992 2.56 1.728 0.352 0.576 0.544 1.312 0.544 2.208 0.032 2.144-1.184 3.456-3.296 3.456-2.24 0-3.232-1.408-3.264-3.584h2.24c0 0.992 0.352 1.568 1.056 1.568 0.352 0 0.608-0.096 0.736-0.32 0.288-0.416 0.352-1.568-0.064-2.016-0.384-0.544-1.184-0.8-1.76-1.088-0.736-0.352-1.28-0.768-1.6-1.248s-0.48-1.184-0.48-2.048c-0.032-1.92 1.216-3.296 3.2-3.264zM11.5 17.464c0.948-0.008 1.892 0.264 2.452 0.84 0.576 0.576 0.896 1.504 0.864 2.656h-2.368c0.032-0.608-0.128-1.056-0.576-1.28-0.416-0.192-1.024-0.064-1.184 0.32-0.16 0.352-0.256 0.768-0.224 1.152v4.672c0 0.992 0.352 1.504 1.024 1.504 0.011 0.001 0.025 0.001 0.038 0.001 0.285 0 0.538-0.138 0.696-0.351l0.002-0.002c0.224-0.32 0.256-0.736 0.224-1.12h2.368c0.128 2.176-1.312 3.616-3.424 3.584-2.048 0-3.328-1.152-3.296-3.296v-5.376c0-1.088 0.32-1.92 0.928-2.464 0.576-0.544 1.528-0.832 2.476-0.84z"></path>
</symbol>

<symbol id="home" viewBox="0 0 32 32">
<path d="M32 18.451l-16-12.42-16 12.42v-5.064l16-12.42 16 12.42zM28 18v12h-8v-8h-8v8h-8v-12l12-9z"></path>
</symbol>

<symbol id="search" viewBox="0 0 32 32">
<path d="M31.008 27.231l-7.58-6.447c-0.784-0.705-1.622-1.029-2.299-0.998 1.789-2.096 2.87-4.815 2.87-7.787 0-6.627-5.373-12-12-12s-12 5.373-12 12 5.373 12 12 12c2.972 0 5.691-1.081 7.787-2.87-0.031 0.677 0.293 1.515 0.998 2.299l6.447 7.58c1.104 1.226 2.907 1.33 4.007 0.23s0.997-2.903-0.23-4.007zM12 20c-4.418 0-8-3.582-8-8s3.582-8 8-8 8 3.582 8 8-3.582 8-8 8z"></path>
</symbol>

<symbol id="icon-checkmark" viewBox="0 0 32 32">
<path d="M27 4l-15 15-7-7-5 5 12 12 20-20z"></path>
</symbol>

<symbol id="icon-checkmark2" viewBox="0 0 32 32">
<path d="M12.42 28.678l-12.433-12.238 6.168-6.071 6.265 6.167 13.426-13.214 6.168 6.071-19.594 19.285zM3.372 16.441l9.048 8.905 16.208-15.953-2.782-2.739-13.426 13.214-6.265-6.167-2.782 2.739z"></path>
</symbol>

<symbol id="icon-mail" viewBox="0 0 32 32">
<path d="M26.666 0h-21.332c-2.934 0-5.334 2.4-5.334 5.333v21.333c0 2.934 2.4 5.334 5.334 5.334h21.332c2.936 0 5.334-2.4 5.334-5.334v-21.333c0-2.934-2.398-5.333-5.334-5.333zM8 8h16c0.286 0 0.563 0.061 0.817 0.177l-8.817 10.286-8.817-10.287c0.254-0.116 0.531-0.177 0.817-0.177zM6 22v-12c0-0.042 0.002-0.084 0.004-0.125l5.864 6.842-5.8 5.8c-0.045-0.167-0.069-0.34-0.069-0.517zM24 24h-16c-0.177 0-0.35-0.024-0.517-0.069l5.691-5.691 2.826 3.297 2.826-3.297 5.691 5.691c-0.167 0.045-0.34 0.069-0.517 0.069zM26 22c0 0.177-0.024 0.35-0.069 0.517l-5.8-5.8 5.864-6.842c0.003 0.041 0.004 0.083 0.004 0.125v12z"></path>
</symbol>

<symbol id="linkedin" viewBox="0 0 32 32">
<path d="M29 0h-26c-1.65 0-3 1.35-3 3v26c0 1.65 1.35 3 3 3h26c1.65 0 3-1.35 3-3v-26c0-1.65-1.35-3-3-3zM12 26h-4v-14h4v14zM10 10c-1.106 0-2-0.894-2-2s0.894-2 2-2c1.106 0 2 0.894 2 2s-0.894 2-2 2zM26 26h-4v-8c0-1.106-0.894-2-2-2s-2 0.894-2 2v8h-4v-14h4v2.481c0.825-1.131 2.087-2.481 3.5-2.481 2.488 0 4.5 2.238 4.5 5v9z"></path>
</symbol>

<symbol id="github" viewBox="0 0 33 32">
<path d="M16.285 0c-9.005 0-16.285 7.333-16.285 16.406 0 7.252 4.664 13.391 11.135 15.563 0.809 0.163 1.105-0.353 1.105-0.787 0-0.38-0.027-1.684-0.027-3.042-4.53 0.978-5.473-1.956-5.473-1.956-0.728-1.901-1.807-2.39-1.807-2.39-1.483-1.005 0.108-1.005 0.108-1.005 1.645 0.109 2.508 1.684 2.508 1.684 1.456 2.499 3.801 1.793 4.745 1.358 0.135-1.059 0.566-1.793 1.025-2.2-3.613-0.38-7.414-1.793-7.414-8.094 0-1.793 0.647-3.259 1.671-4.4-0.162-0.407-0.728-2.092 0.162-4.346 0 0 1.375-0.435 4.475 1.684 1.221-0.343 2.622-0.542 4.070-0.543h0.001c1.375 0 2.777 0.19 4.071 0.543 3.101-2.119 4.476-1.684 4.476-1.684 0.89 2.254 0.323 3.939 0.162 4.346 1.052 1.141 1.672 2.607 1.672 4.4 0 6.302-3.801 7.687-7.441 8.094 0.593 0.516 1.105 1.494 1.105 3.042 0 2.2-0.027 3.966-0.027 4.509 0 0.435 0.297 0.951 1.105 0.788 6.471-2.173 11.135-8.312 11.135-15.564 0.027-9.072-7.28-16.406-16.258-16.406z"></path>
</symbol>

<symbol id="telegram" viewBox="0 0 32 32">
<path d="M15.925 0c-8.804 0.042-15.925 7.19-15.925 16 0 0 0 0 0 0v0c0 8.837 7.163 16 16 16v0c8.837 0 16-7.163 16-16v0c0-8.837-7.163-16-16-16v0c-0.011-0-0.024-0-0.037-0s-0.026 0-0.039 0h0.002zM22.541 9.632c0.133-0.003 0.428 0.031 0.62 0.187 0.124 0.108 0.208 0.259 0.228 0.43l0 0.003c0.021 0.124 0.048 0.408 0.027 0.629-0.24 2.531-1.283 8.669-1.813 11.503-0.224 1.2-0.665 1.601-1.093 1.64-0.928 0.087-1.633-0.613-2.533-1.203-1.408-0.924-2.204-1.499-3.571-2.4-1.58-1.040-0.556-1.613 0.344-2.547 0.236-0.245 4.329-3.969 4.409-4.307 0.009-0.043 0.019-0.2-0.075-0.283s-0.232-0.055-0.332-0.032c-0.141 0.032-2.391 1.52-6.748 4.46-0.64 0.44-1.217 0.653-1.736 0.64-0.571-0.011-1.669-0.321-2.487-0.587-1.003-0.327-1.799-0.499-1.729-1.052 0.036-0.288 0.433-0.583 1.191-0.884 4.664-2.032 7.773-3.372 9.331-4.019 4.443-1.848 5.367-2.169 5.968-2.18z"></path>
</symbol>

</defs>
</svg>
